<svg width="512" height="512" xmlns:xlink="http://www.w3.org/1999/xlink" xmlns="http://www.w3.org/2000/svg"><defs><linearGradient id="a"><stop style="stop-color:#0894b3;stop-opacity:1" offset="0"/><stop style="stop-color:#086483;stop-opacity:1" offset="1"/></linearGradient><linearGradient xlink:href="#a" id="b" x1="132.4" y1="56" x2="379.6" y2="456" gradientUnits="userSpaceOnUse" gradientTransform="matrix(1.209 0 0 1.209 -23.7 -53.3)"/></defs><path style="fill:url(#b);fill-rule:evenodd;stroke-width:1.11107" d="M187.3 14.4h197a50.8 50.8 0 0 1 51 50.9V447a50.8 50.8 0 0 1-51 50.9h-197a50.8 50.8 0 0 1-51-50.9V65.3a50.8 50.8 0 0 1 51-50.9z"/><path style="fill:#333;stroke-width:1.14713" d="M132.2 115.4h39.3a12.6 12.6 0 1 1 0 25.3h-39.3a12.6 12.6 0 1 1 0-25.3zM132.2 236.5h39.3a12.6 12.6 0 1 1 0 25.3h-39.3a12.6 12.6 0 1 1 0-25.3zM132.2 357.6h39.3a12.6 12.6 0 1 1 0 25.3h-39.3a12.6 12.6 0 1 1 0-25.3z"/><g style="font-weight:700;font-size:146.667px;line-height:1.25;font-family:Ubuntu;-inkscape-font-specification:'Ubuntu, Bold';fill:#f9f9f9"><path d="m254.5 137.5-6.9-1.5q-4-.8-8.5-.8-2 0-5 .4-2.7.3-4.2.7v59H208v-73q6-2.1 13.8-3.9 8.1-1.9 18-1.9 1.7 0 4.2.3l5 .6q2.5.3 5 .9 2.4.4 4.2 1.2z" style="fill:#f9f9f9" transform="matrix(1.3292 0 0 1.3292 -64.3 -65.4)" aria-label="r"/></g><g style="font-weight:700;font-size:146.667px;line-height:1.25;font-family:Ubuntu;-inkscape-font-specification:'Ubuntu, Bold';fill:#f9f9f9"><path d="M330.4 394.1q-9.5-.1-15.5-2-5.9-2-9.4-5.3-3.4-3.5-4.7-8.3-1.2-5-1.2-11.2v-85l21.9-3.4v84q0 3 .4 5.3.5 2.3 1.6 4 1.4 1.6 3.7 2.6 2.4 1 6.3 1.3z" style="fill:#f9f9f9" transform="translate(-84.4 -133) scale(1.36274)" aria-label="l"/></g></svg>